<?xml version="1.0" encoding="UTF-8" standalone="no"?>
<svg
   xmlns:dc="http://purl.org/dc/elements/1.1/"
   xmlns:cc="http://creativecommons.org/ns#"
   xmlns:rdf="http://www.w3.org/1999/02/22-rdf-syntax-ns#"
   xmlns:svg="http://www.w3.org/2000/svg"
   xmlns="http://www.w3.org/2000/svg"
   xmlns:sodipodi="http://sodipodi.sourceforge.net/DTD/sodipodi-0.dtd"
   xmlns:inkscape="http://www.inkscape.org/namespaces/inkscape"
   inkscape:export-ydpi="96"
   inkscape:export-xdpi="96"
   inkscape:export-filename="C:\Users\-M-\Desktop\git-github\git_three\Images\MoleAntonelliana.png"
   width="210mm"
   height="297mm"
   viewBox="0 0 210 297"
   version="1.1"
   id="svg8"
   inkscape:version="1.0 (4035a4fb49, 2020-05-01)"
   sodipodi:docname="MoleAntonelliana.svg">
  <defs
     id="defs2" />
  <sodipodi:namedview
     id="base"
     pagecolor="#ffffff"
     bordercolor="#666666"
     borderopacity="1.0"
     inkscape:pageopacity="0.0"
     inkscape:pageshadow="2"
     inkscape:zoom="1.4"
     inkscape:cx="337.16759"
     inkscape:cy="596.73778"
     inkscape:document-units="mm"
     inkscape:current-layer="layer1"
     inkscape:document-rotation="0"
     showgrid="false"
     inkscape:object-nodes="false"
     inkscape:window-width="1304"
     inkscape:window-height="729"
     inkscape:window-x="62"
     inkscape:window-y="0"
     inkscape:window-maximized="0" />
  <metadata
     id="metadata5">
    <rdf:RDF>
      <cc:Work
         rdf:about="">
        <dc:format>image/svg+xml</dc:format>
        <dc:type
           rdf:resource="http://purl.org/dc/dcmitype/StillImage" />
        <dc:title />
      </cc:Work>
    </rdf:RDF>
  </metadata>
  <g
     inkscape:label="Layer 1"
     inkscape:groupmode="layer"
     id="layer1">
    <path
       id="path895"
       style="fill:#42f57b;fill-opacity:0.393574;stroke:#000000;stroke-width:1.88976"
       d="M 385.12695 449.51758 A 142.4315 142.4315 0 0 0 382.11719 449.54492 A 142.4315 142.4315 0 0 0 242.44922 593.7832 A 142.4315 142.4315 0 0 0 308.44727 712.14258 L 461.28906 712.14258 A 142.4315 142.4315 0 0 0 527.29883 591.94922 L 527.25195 588.28125 A 142.4315 142.4315 0 0 0 385.12695 449.51758 z "
       transform="scale(0.26458333)" />
    <path
       style="fill:#cccccc;stroke:#000000;stroke-width:0.264583px;stroke-linecap:butt;stroke-linejoin:miter;stroke-opacity:1;fill-opacity:1;opacity:1"
       d="m 101.13468,109.14881 h 0.45069 l 0.43945,5.01186 0.14952,1.84108 0.26851,4.55475 v 1.70892 l 0.41429,1.29642 0.17754,6.77676 0.0592,0.53034 0.94696,0.17679 -0.11834,1.64999 -0.17754,3.29999 -4.61641,-0.0589 -0.355104,-4.94998 0.887769,-0.29464 0.118338,-4.71427 0.295937,-2.7107 0.23673,-0.88391 0.46333,-7.75413 z"
       id="path847"
       sodipodi:nodetypes="cccccccccccccccccccc" />
    <path
       style="fill:#cccccc;stroke:#000000;stroke-width:0.264583px;stroke-linecap:butt;stroke-linejoin:miter;stroke-opacity:1;fill-opacity:1"
       d="m 99.128343,135.9368 -0.469882,2.56841 -0.316853,0.20117 -0.04184,1.11965 2.781672,2.23927 h 0.88777 l 2.30819,-2.41607 -0.0592,-1.06071 -0.30967,-0.20057 -0.16386,-2.39227 z"
       id="path849"
       sodipodi:nodetypes="ccccccccccc" />
    <path
       style="fill:none;stroke:#000000;stroke-width:0.264583px;stroke-linecap:butt;stroke-linejoin:miter;stroke-opacity:1"
       d="m 98.299754,139.82603 -1.538799,1.11966 0.118374,7.95534 4.172511,-0.0295 0.0296,-6.80627 z"
       id="path851"
       sodipodi:nodetypes="cccccc" />
    <path
       style="fill:none;stroke:#000000;stroke-width:0.264583px;stroke-linecap:butt;stroke-linejoin:miter;stroke-opacity:1"
       d="m 102.10978,141.96954 c 0,0 -0.0322,1.41413 0.0142,3.4271 0.016,0.69637 -0.005,2.76767 0.009,3.15135 0.0106,0.28853 -0.007,0.39689 0.0142,0.3935 0.12561,-0.0208 4.11925,0.19972 4.07738,-0.0711 -0.0418,-0.27085 -0.0627,-7.22951 -0.0627,-7.22951 l -1.88301,-1.99163 z"
       id="path853"
       sodipodi:nodetypes="cssssccc" />
    <path
       style="fill:none;stroke:#000000;stroke-width:0.264583px;stroke-linecap:butt;stroke-linejoin:miter;stroke-opacity:1"
       d="m 96.879325,148.94269 -1.369704,-0.0106 1.987869,2.95845 8.72569,0.0208 1.56936,-2.93764 z"
       id="path855"
       sodipodi:nodetypes="cccccc" />
    <path
       style="fill:#cccccc;stroke:#000000;stroke-width:0.264583px;stroke-linecap:butt;stroke-linejoin:miter;stroke-opacity:1"
       d="m 97.497486,151.8913 c 0,0 -2.273413,2.30354 -3.873316,4.31682 -1.671324,2.10316 -4.297749,6.84681 -4.425103,7.47675 -0.143051,0.70761 -1.256622,2.95357 -1.552548,6.31249 -0.29592,3.35891 -0.118356,2.41605 -0.118356,2.41605 l 13.508887,-0.10318 0.0445,-20.34499 z"
       id="path857"
       sodipodi:nodetypes="cssscccc" />
    <path
       style="fill:#cccccc;stroke:#000000;stroke-width:0.264583px;stroke-linecap:butt;stroke-linejoin:miter;stroke-opacity:1"
       d="m 106.22318,151.91212 c 0,0 2.88765,2.95852 3.348,3.79189 0.46034,0.83338 2.76209,5.04191 3.34797,6.83366 0.5859,1.79175 2.11732,6.33747 2.21805,7.41701 0.10665,1.1425 0.11692,2.30501 0.0836,2.29178 h -13.22456 l -0.0941,-20.31344 z"
       id="path859"
       sodipodi:nodetypes="cssscccc" />
    <path
       style="fill:none;stroke:#000000;stroke-width:0.264583px;stroke-linecap:butt;stroke-linejoin:miter;stroke-opacity:1"
       d="m 87.52816,172.41341 -2.397304,1.87481 31.178144,-0.0416 2.17621,0.0416 -3.26439,-2.04176 z"
       id="path861"
       sodipodi:nodetypes="cccccc" />
    <path
       style="fill:#cccccc;stroke:#000000;stroke-width:0.264583px;stroke-linecap:butt;stroke-linejoin:miter;stroke-opacity:1;fill-opacity:1"
       d="m 87.474448,174.37157 v 3.1668 l 28.248652,-0.0416 0.0314,-3.19804 z"
       id="path863"
       sodipodi:nodetypes="ccccc" />
    <path
       style="fill:none;stroke:#000000;stroke-width:0.264583px;stroke-linecap:butt;stroke-linejoin:miter;stroke-opacity:1"
       d="m 87.474448,177.53837 -2.84579,1.66674 1.590295,0.0416 -0.167392,6.3753 -4.059439,2.79179 39.651608,0.0905 -3.66074,-2.67393 -0.0418,-6.41697 1.50658,-0.16668 -3.72463,-1.75007 z"
       id="path867"
       sodipodi:nodetypes="ccccccccccc" />
    <path
       style="fill:#cccccc;stroke:#000000;stroke-width:0.264583px;stroke-linecap:butt;stroke-linejoin:miter;stroke-opacity:1;fill-opacity:1"
       d="m 86.344504,180.74685 31.597076,0.27952 0.0218,2.88414 -31.723102,-0.0384 z"
       id="path869"
       sodipodi:nodetypes="ccccc" />
    <path
       style="fill:none;stroke:#000000;stroke-width:0.264583px;stroke-linecap:butt;stroke-linejoin:miter;stroke-opacity:1"
       d="m 86.344575,183.87211 -0.03146,1.63539 31.638485,0.2188 0.0142,-1.77758 z"
       id="path871"
       sodipodi:nodetypes="ccccc" />
    <path
       style="fill:none;stroke:#000000;stroke-width:0.264583px;stroke-linecap:butt;stroke-linejoin:miter;stroke-opacity:1"
       d="m 104.27738,139.64927 -0.0296,9.34014 z"
       id="path873" />
    <path
       style="fill:none;stroke:#000000;stroke-width:0.264583px;stroke-linecap:butt;stroke-linejoin:miter;stroke-opacity:1"
       d="m 103.00494,141.06355 0.0592,7.808 z"
       id="path875"
       sodipodi:nodetypes="ccc" />
    <path
       style="fill:none;stroke:#000000;stroke-width:0.264583px;stroke-linecap:butt;stroke-linejoin:miter;stroke-opacity:1"
       d="m 105.52029,141.09301 v 7.77854 z"
       id="path877" />
    <path
       style="fill:none;stroke:#000000;stroke-width:0.264583px;stroke-linecap:butt;stroke-linejoin:miter;stroke-opacity:1"
       d="m 99.554273,140.75611 0.02958,8.00622 z"
       id="path879"
       sodipodi:nodetypes="ccc" />
    <path
       style="fill:none;stroke:#000000;stroke-width:0.264583px;stroke-linecap:butt;stroke-linejoin:miter;stroke-opacity:1"
       d="m 98.446228,139.97186 0.05919,8.99672 z"
       id="path881"
       sodipodi:nodetypes="ccc" />
    <path
       style="fill:none;stroke:#000000;stroke-width:0.264583px;stroke-linecap:butt;stroke-linejoin:miter;stroke-opacity:1"
       d="m 97.500763,140.41533 0.0085,1.20879 0.05075,7.27689 z"
       id="path883"
       sodipodi:nodetypes="cccc" />
    <path
       style="fill:none;stroke:#000000;stroke-width:0.264583px;stroke-linecap:butt;stroke-linejoin:miter;stroke-opacity:1"
       d="m 102.44276,122.26542 -2.06788,-0.007 z"
       id="path885"
       sodipodi:nodetypes="ccc" />
    <path
       style="fill:none;stroke:#000000;stroke-width:0.264583px;stroke-linecap:butt;stroke-linejoin:miter;stroke-opacity:1"
       d="m 99.601909,130.35335 3.447461,0.0589 z"
       id="path887"
       sodipodi:nodetypes="ccc" />
  </g>
</svg>
