<?xml version="1.0" encoding="UTF-8" standalone="no"?>
<svg
   xmlns:dc="http://purl.org/dc/elements/1.1/"
   xmlns:cc="http://creativecommons.org/ns#"
   xmlns:rdf="http://www.w3.org/1999/02/22-rdf-syntax-ns#"
   xmlns:svg="http://www.w3.org/2000/svg"
   xmlns="http://www.w3.org/2000/svg"
   xmlns:sodipodi="http://sodipodi.sourceforge.net/DTD/sodipodi-0.dtd"
   xmlns:inkscape="http://www.inkscape.org/namespaces/inkscape"
   sodipodi:docname="drawing-1.svg"
   inkscape:version="1.0 (4035a4fb49, 2020-05-01)"
   id="svg48"
   version="1.1"
   viewBox="0 0 210 297"
   height="297mm"
   width="210mm">
  <defs
     id="defs42" />
  <sodipodi:namedview
     inkscape:window-maximized="1"
     inkscape:window-y="-8"
     inkscape:window-x="69"
     inkscape:window-height="745"
     inkscape:window-width="1289"
     showgrid="false"
     inkscape:document-rotation="0"
     inkscape:current-layer="layer1"
     inkscape:document-units="mm"
     inkscape:cy="347.01072"
     inkscape:cx="-102.85364"
     inkscape:zoom="0.24748737"
     inkscape:pageshadow="2"
     inkscape:pageopacity="0.0"
     borderopacity="1.0"
     bordercolor="#666666"
     pagecolor="#ffffff"
     id="base" />
  <metadata
     id="metadata45">
    <rdf:RDF>
      <cc:Work
         rdf:about="">
        <dc:format>image/svg+xml</dc:format>
        <dc:type
           rdf:resource="http://purl.org/dc/dcmitype/StillImage" />
        <dc:title></dc:title>
      </cc:Work>
    </rdf:RDF>
  </metadata>
  <g
     id="layer1"
     inkscape:groupmode="layer"
     inkscape:label="Layer 1">
    <path
       style="color:#000000;font-style:normal;font-variant:normal;font-weight:normal;font-stretch:normal;font-size:medium;line-height:normal;font-family:sans-serif;font-variant-ligatures:normal;font-variant-position:normal;font-variant-caps:normal;font-variant-numeric:normal;font-variant-alternates:normal;font-variant-east-asian:normal;font-feature-settings:normal;font-variation-settings:normal;text-indent:0;text-align:start;text-decoration:none;text-decoration-line:none;text-decoration-style:solid;text-decoration-color:#000000;letter-spacing:normal;word-spacing:normal;text-transform:none;writing-mode:lr-tb;direction:ltr;text-orientation:mixed;dominant-baseline:auto;baseline-shift:baseline;text-anchor:start;white-space:normal;shape-padding:0;shape-margin:0;inline-size:0;clip-rule:nonzero;display:inline;overflow:visible;visibility:visible;opacity:1;isolation:auto;mix-blend-mode:normal;color-interpolation:sRGB;color-interpolation-filters:linearRGB;solid-color:#000000;solid-opacity:1;vector-effect:none;fill:#afdde9;fill-opacity:1;fill-rule:nonzero;stroke:none;stroke-width:0.264583px;stroke-linecap:butt;stroke-linejoin:miter;stroke-miterlimit:4;stroke-dasharray:none;stroke-dashoffset:0;stroke-opacity:1;color-rendering:auto;image-rendering:auto;shape-rendering:auto;text-rendering:auto;enable-background:accumulate;stop-color:#000000;stop-opacity:1"
       d="m 106.27157,24.111508 -0.003,0.128764 12.40731,5.168738 0.003,-0.128765 z m -2.4216,1.896189 -0.004,0.127812 12.98038,7.815587 0.004,-0.12877 z m -2.42095,1.915269 -0.005,0.126855 13.55642,10.473877 0.005,-0.127812 z m -2.420324,1.929573 -0.0059,0.125903 14.134994,13.142658 0.006,-0.12686 z m -2.419897,1.941972 -0.0068,0.125903 14.715911,15.820024 0.007,-0.12495 z m -2.41947,1.955329 -0.0074,0.12495 15.298731,18.506929 0.007,-0.124951 z m -2.419045,1.967722 -0.0081,0.123998 15.883876,21.20242 0.008,-0.123993 z m -2.418414,1.979175 -0.0089,0.122089 16.47157,23.910313 0.009,-0.123046 z m -2.418197,1.989665 -0.0096,0.122089 17.061807,26.629643 0.009,-0.122088 z m -2.417777,2.001108 -0.01,0.121136 17.654594,29.364244 0.01,-0.121136 z m -2.417142,2.014463 -0.01062,0.120184 18.250766,32.113145 0.0104,-0.120184 z m -2.41671,2.025911 -0.01104,0.120179 18.849703,34.877312 0.01101,-0.120179 z m -2.416294,2.040215 -0.01123,0.119227 19.452028,37.657691 0.01146,-0.11827 z m -2.415445,2.054528 -0.01188,0.117318 20.058165,40.456194 0.01165,-0.118275 z m -2.415017,2.068827 -0.01208,0.116366 20.667911,43.27282 0.01207,-0.116365 z m -2.414387,2.083142 -0.0125,0.116365 21.282318,46.114239 0.0125,-0.11637 z m -2.413745,2.099355 -0.01273,0.115408 21.902026,48.984281 0.01295,-0.11637 z m -2.4129,2.115568 -0.01315,0.115413 22.5281,51.886738 0.01315,-0.11541 z m -2.412262,2.132738 -0.01338,0.113504 23.16095,54.828319 0.01334,-0.11446 z m -2.411628,2.148952 -0.01357,0.113503 23.801649,57.813768 0.01357,-0.11351 z m -2.410779,2.168027 -0.0138,0.112551 24.452948,60.860263 0.01399,-0.11351 z m -2.409933,2.18615 -0.014,0.11255 25.118233,63.984974 0.01422,-0.11255 z m -2.40887,2.208091 -0.0144,0.111594 25.800697,67.206969 0.01441,-0.11255 z m -2.40781,2.231933 -0.0146,0.110642 26.505217,70.552958 0.01464,-0.11064 z m -2.40675,2.257688 -0.0148,0.109689 27.244494,74.087813 0.01506,-0.11064 z m -2.40527,2.285344 -0.0153,0.10969 28.041875,77.923118 0.01525,-0.10968 z m -2.40399,2.315872 -0.0152,0.108737 28.674722,81.514249 -1.400331,-1.48129 -1.63567,-1.9143 -1.410722,-1.82943 -1.254044,-1.80558 -0.847411,-1.35824 -24.513574,-70.885848 -0.0157,0.108737 24.410117,70.586351 -0.07081,-0.11351 -0.807977,-1.44789 -0.574765,-1.15794 -25.342545,-65.595018 -0.0142,0.111599 24.895197,64.438039 -27.280537,-62.130753 -0.0129,0.115413 27.184497,61.91137 -29.568777,-59.558301 -0.0117,0.11827 30.089895,60.607501 -32.472265,-58.200063 -0.0106,0.120185 32.691275,58.592088 0.09625,0.2499 -35.167355,-56.36874 -0.01,0.121137 35.316195,56.608143 0.170244,0.44067 -37.863079,-54.501169 -0.009,0.123046 37.990079,54.684293 0.226217,0.58565 -40.588906,-52.637407 -0.008,0.123998 40.701061,52.782379 0.268615,0.69534 -43.336366,-50.73168 -0.007,0.12495 43.4377,50.8509 0.309111,0.7993 -46.104591,-48.74964 -0.007,0.12591 46.197876,48.84883 0.354483,0.91757 -48.897629,-46.66268 -0.006,0.12686 48.984553,46.74567 0.421055,1.08926 -51.726278,-44.38689 -0.005,0.12686 51.807694,44.45651 0.528334,1.36778 -54.604758,-41.75339 -0.005,0.12686 54.681502,41.81252 0.890448,2.30537 -57.50147,-37.75688 -0.004,0.12781 57.573337,37.80363 0.738432,1.91146 -56.755609,-32.0855 -0.003,0.12781 56.823459,32.1246 0.281337,0.72777 -54.911746,-27.96119 -0.003,0.12781 54.975566,27.99361 0.204805,0.59233 -52.915031,-24.38532 -0.003,0.12781 52.971216,24.41107 0.212223,0.61426 -50.886719,-21.17667 -0.003,0.12876 50.941624,21.19956 0.234482,0.67721 -48.860326,-18.25989 -0.002,0.12877 48.914159,18.28087 0.267132,0.77165 -46.854261,-15.58348 -0.002,0.12876 46.906838,15.6016 0.301693,0.87179 -44.872591,-13.12549 -0.002,0.12877 44.92411,13.14075 0.337519,0.97576 -42.919119,-10.86398 -0.002,0.12971 42.969797,10.87639 0.320983,0.92806 0.01548,-0.10874 -0.278367,-0.80502 0.185507,0.0477 0.418934,1.08355 -41.284934,-8.8419 -0.002,0.12877 41.340694,8.85429 0.460064,1.19037 -39.449348,-6.92567 -10e-4,0.12876 39.503824,6.9352 0.499711,1.29339 -37.648725,-5.16588 -7.7e-4,0.12972 37.702372,5.17255 0.38565,0.99864 0.01441,-0.11254 -0.33901,-0.87751 1.252355,0.17169 0.592358,1.34965 -37.250155,-3.69033 -7.6e-4,0.12877 37.310151,3.69604 0.489745,1.11597 0.01292,-0.11445 -0.436746,-0.99484 1.451856,0.14403 0.690309,1.39066 -37.157505,-2.26913 -3.7e-4,0.12973 37.224081,2.27294 0.306565,0.61712 0.01166,-0.11732 -0.245935,-0.49599 1.557858,0.0954 0.774689,1.38876 0.01062,-0.12018 -0.704937,-1.26381 1.582877,0.0973 0.846982,1.35728 -39.00137,-0.90232 -3.6e-4,0.12877 39.083417,0.90422 0.28473,0.45688 0.0097,-0.12209 -0.207347,-0.33193 1.654961,0.0381 0.646843,0.93094 0.0089,-0.12305 -0.559921,-0.80597 1.648807,0.0381 1.004089,1.30196 -41.209249,0.60853 v 0.12876 l 43.119045,-0.63619 0.199287,0.23369 0.0072,-0.12495 -0.09392,-0.1097 1.703508,-0.0257 0.489535,0.51791 0.0066,-0.1259 -0.37208,-0.39393 1.691004,-0.0248 0.781258,0.74588 0.006,-0.12685 -0.650451,-0.62094 1.670013,-0.0248 1.081041,0.92807 0.0055,-0.12686 -0.93582,-0.80311 1.639908,-0.0238 1.324855,1.01296 -49.305943,2.59725 3.6e-4,0.12972 51.321121,-2.70409 0.164092,0.10779 0.0034,-0.11637 1.668953,-0.0877 0.43441,0.24513 0.003,-0.12782 -0.22792,-0.12875 1.64076,-0.0868 0.69052,0.35196 0.003,-0.12782 -0.46345,-0.23559 1.63439,-0.0868 0.93285,0.43017 0.003,-0.12782 -0.68416,-0.3157 1.62718,-0.0849 1.16077,0.48263 0.003,-0.12877 -0.88642,-0.36912 1.6151,-0.0849 1.37553,0.51411 0.002,-0.12876 -1.07384,-0.40156 1.59793,-0.0839 1.58033,0.52555 0.002,-0.12876 -1.24642,-0.41492 1.56973,-0.082 1.59115,0.46545 -63.675446,5.77347 3.7e-4,0.12877 65.931036,-5.97854 0.0409,0.0104 3.2e-4,-0.0143 1.88754,-0.17073 0.21901,0.0467 7.6e-4,-0.0668 1.71093,-0.15547 0.39498,0.0696 0.001,-0.10492 1.54259,-0.14021 0.5631,0.0772 0.001,-0.12875 1.37787,-0.12496 0.72783,0.0725 0.001,-0.12972 -0.0445,-0.005 1.26995,-0.11447 0.88027,0.0534 v -0.12876 l -0.0318,-0.002 1.10457,-0.10015 1.03314,0.0238 v -0.11725 l 0.93136,-0.0849 0.85356,-0.0124 -78.027106,10.04371 7.6e-4,0.12973 83.695226,-10.77435 -81.325156,13.56902 10e-4,0.12971 84.401016,-14.08312 -0.001,-0.12875 -2.10507,0.351 -0.001,-0.0916 -2.10591,0.27088 v -0.021 l -3.40617,0.30903 -3.94192,0.20794 -3.93938,0.0572 -3.90312,-0.0897 -3.84568,-0.23463 -3.8444,-0.38153 -3.7774,-0.51793 -3.72186,-0.65337 -3.70765,-0.79453 -3.591466,-0.90898 -3.473168,-1.01581 -3.317972,-1.10358 -3.087732,-1.15412 -2.59099,-1.07781 -0.201197,-0.0925 -5.689323,-4.35038 -3.262848,-2.80041 -2.482867,-2.36928 -0.458578,-0.48454 z m 21.07603,71.554476 0.02881,0.0515 0.03753,0.0754 -0.03519,-0.0563 z m -0.0031,0.15356 0.02377,0.0381 0.199287,0.45307 -0.0742,-0.10683 z m 0.237666,0.38058 0.165582,0.26516 0.182541,0.36817 -0.190597,-0.2747 z m 0.02927,0.30999 0.118299,0.16978 0.262046,0.59709 -0.168337,-0.21843 z m 0.29024,0.41777 0.264801,0.38153 0.271589,0.54654 -0.299359,-0.38821 z m 0.189114,0.0868 0.09223,0.1488 0.09583,0.17168 -0.103037,-0.14879 z m -0.163247,0.31285 0.200988,0.26135 0.308262,0.70106 -0.250803,-0.29283 z m 0.484445,0.3348 0.05385,0.0773 0.0352,0.10205 z m -0.136321,0.11731 0.349392,0.45307 0.03669,0.0734 0.143742,0.41586 -0.23851,-0.27947 z m 0.295965,0.11256 0.09202,0.13257 0.249958,0.44735 -0.256107,-0.33193 z m -0.291727,0.34814 0.277308,0.3243 0.352366,0.8031 -0.328191,-0.34718 z m 0.5419,0.24704 0.362755,0.47023 0.334126,0.599 -0.396461,-0.46356 z m 0.236182,0.10492 0.162613,0.23368 0.145015,0.23273 -0.171092,-0.22224 z m -0.221126,0.0668 0.1183,0.23845 -0.06042,-0.0706 z m -0.149471,0.0582 0.195687,0.22891 0.214133,0.61999 -0.06954,-0.0734 z m 0.284944,0.33383 0.140987,0.16501 0.383529,0.7726 -0.315893,-0.33384 z m -0.304234,0.19363 0.35045,0.37104 0.40261,0.91662 -0.404941,-0.3863 z m 0.797373,0.0773 0.338791,0.43971 0.299787,0.48073 -0.36148,-0.4235 z m -0.185087,0.0897 0.452857,0.53032 0.403882,0.723 -0.492928,-0.52079 z m -0.143746,0.32907 0.03309,0.0343 0.06572,0.19077 z m 0.116824,0.12304 0.382039,0.40443 0.44268,0.89181 -0.548048,-0.52364 -0.04452,-0.10111 z m 0.703665,0.33956 0.455608,0.53319 0.40282,0.64668 -0.489108,-0.51792 z m 0.295965,0.14021 0.220492,0.28615 0.167699,0.24131 -0.21943,-0.25657 z m -1.155674,0.0124 0.4077,0.38917 0.334554,0.96716 -0.326285,-0.27947 z m 0.685647,0.0677 0.534693,0.56562 0.475961,0.85271 -0.582396,-0.55512 z m -0.152864,0.44067 0.573067,0.54749 0.530455,1.06827 -0.632644,-0.54272 z m 1.100342,0.24512 0.407058,0.47596 0.36042,0.51887 -0.430593,-0.45496 z m -0.223247,0.0801 0.551862,0.58374 0.496957,0.79644 -0.59618,-0.56847 z m -0.7872,0.0238 0.279643,0.6362 -0.08459,-0.0725 z m 0.616318,0.32527 0.615466,0.58754 0.579426,1.03775 -0.675466,-0.57896 z m -0.747129,0.0906 0.315049,0.27089 0.435473,1.25904 -0.22643,-0.1736 z m 0.390526,0.3348 0.112578,0.0973 0.600414,1.36778 -0.280916,-0.21556 z m 1.331217,0.0754 0.534693,0.5656 0.497376,0.71632 -0.574974,-0.54939 z m -1.117088,0.10873 0.65363,0.56084 0.670594,1.35061 -0.729956,-0.55798 z m 1.448886,0.0286 0.245297,0.28709 0.219854,0.2852 -0.254625,-0.26898 z m -0.52473,0.10777 0.642396,0.61332 0.622463,0.99673 -0.702602,-0.60281 z m -0.148619,0.52937 0.702606,0.60282 0.740556,1.32675 -0.781686,-0.59708 z m 1.231574,0.16693 0.461758,0.48835 0.458581,0.59422 -0.498439,-0.475 z m -0.228761,0.11922 0.644092,0.61425 0.655748,0.94333 -0.704723,-0.60472 z m -1.78704,0.0715 0.21625,0.16596 0.755185,2.18328 -0.08544,-0.0563 z m 0.288334,0.22033 0.305931,0.23463 1.016382,2.31397 -0.570522,-0.37485 z m 1.347542,0.15261 0.738436,0.63332 0.808825,1.29624 -0.820485,-0.62664 z m -0.946206,0.15451 0.748188,0.5723 1.146131,2.30823 -0.884509,-0.58087 z m 2.021316,0.28234 0.612076,0.58373 0.673349,0.8737 -0.675894,-0.57993 z m 0.327343,0.0801 0.302331,0.31952 0.314835,0.36913 -0.327346,-0.31285 z m -0.479569,0.27469 0.754336,0.64764 0.874757,1.25906 -0.840834,-0.64289 z m -1.008113,0.021 0.80437,0.61521 1.28288,2.29965 -0.950019,-0.62379 z m 2.16442,0.58182 0.552929,0.52842 0.652147,0.76305 3.67e-4,0.002 -0.618229,-0.53033 z m -1.224573,0.13735 0.849104,0.64955 1.427261,2.28727 -1.006416,-0.661 z m 1.05624,0.10779 0.74946,0.64287 0.936454,1.21516 -0.843594,-0.64574 z m -2.593321,0.45592 0.07632,0.0496 0.486146,1.40592 z m 0.145225,0.0954 0.592572,0.38819 0.828965,1.88858 -0.788259,-0.44545 z m 2.405059,0.11541 0.878571,0.67148 1.581394,2.27677 -1.051574,-0.69057 z m 1.098638,0.23941 0.384378,0.33002 0.04686,0.13258 0.01146,-0.083 0.2983,0.25563 0.986277,1.15508 -0.844652,-0.64575 z m 0.324167,0.005 0.360207,0.34432 0.534903,0.56562 -0.472362,-0.40538 -0.417233,-0.48835 z m -3.146459,0.0877 0.9002,0.59041 0.917373,1.8485 -0.99327,-0.56179 z m 2.803426,0.49407 0.895958,0.68484 1.748459,2.26723 -1.090801,-0.71631 z m -1.799337,0.16502 0.968675,0.63619 1.003661,1.79891 -1.06154,-0.60091 z m 2.985963,0.2499 0.71151,0.61139 1.00472,1.06161 -0.828117,-0.63334 z m -0.03859,0.4626 0.921401,0.70488 1.930996,2.26055 -1.146551,-0.75258 z m -1.856158,0.004 1.029528,0.67626 1.085286,1.73976 -1.120267,-0.63333 z m -2.087457,0.16957 0.80818,0.45687 0.301693,0.68771 -0.865638,-0.44066 -0.01,-0.0267 z m 0.892351,0.50457 1.007054,0.56943 0.313776,0.63238 -1.021682,-0.52079 z m 4.468138,0.0419 0.614194,0.52747 0.91949,0.87752 -0.742039,-0.56754 z m -2.098279,0.0553 1.0802,0.70964 1.160549,1.67014 -1.16797,-0.66099 z m 1.931425,0.18028 0.953203,0.72871 2.131346,2.25387 -1.222667,-0.80311 z m -4.887069,0.083 0.876667,0.44638 0.248686,0.56657 -0.893202,-0.41204 z m 1.690151,0.26421 1.077651,0.60853 0.31675,0.56847 -1.084228,-0.55226 z m -0.732072,0.22318 1.03461,0.52651 0.256115,0.51601 -1.044156,-0.48071 z m 3.251403,0.0725 1.127685,0.74017 1.224367,1.5881 -1.209735,-0.68388 z m -3.916487,0.19841 0.903383,0.41586 0.258015,0.58754 -0.921821,-0.38343 z m 2.588239,0.17931 1.139768,0.64383 0.307204,0.49312 -1.135321,-0.57897 z m 3.412953,0.0553 0.98585,0.75447 2.346755,2.23957 -1.3238,-0.86988 z m -4.207789,0.0687 1.098856,0.5599 0.255683,0.45783 -1.101397,-0.50743 z m -0.810729,0.14976 1.05624,0.48644 0.268829,0.54082 -1.068958,-0.44448 z m -0.854618,0.0276 0.04262,0.11064 -0.0053,-0.002 z m 6.625142,0.15261 0.48741,0.41777 -0.2472,-0.18885 z m -1.499349,0.0467 1.196597,0.78499 1.2674,1.48414 -1.265917,-0.71536 z m -5.035898,0.061 0.01253,0.005 0.265012,0.68674 -0.0441,-0.0172 z m 0.08141,0.0334 0.931792,0.3882 0.286213,0.65146 -0.954266,-0.35673 z m 3.561153,0.12399 1.191502,0.67339 0.281341,0.40537 -1.172423,-0.59708 z m -0.859705,0.02 1.152704,0.5866 0.244449,0.39201 -1.145497,-0.52746 z m -0.871153,0.063 1.115178,0.5141 0.273067,0.48836 -1.121961,-0.46642 z m -0.821119,0.21366 1.08041,0.44924 0.302113,0.60854 -1.098004,-0.41014 z m 6.377506,0.3281 0.959776,0.73349 2.57763,2.21191 -1.444431,-0.9481 z m -4.33669,0.02 1.161822,0.53509 0.268829,0.43112 -1.16097,-0.48262 z m -2.846673,0.021 0.05152,0.02 0.300845,0.77832 -0.08608,-0.0286 z m 3.776558,0.006 1.193195,0.60759 0.220072,0.31666 -1.174119,-0.54177 z m -3.65762,0.0391 0.963803,0.36055 0.327343,0.74494 -0.99136,-0.33003 z m 6.088328,0.0267 1.294325,0.84986 1.270797,1.34392 -1.336945,-0.75542 z m -1.502524,0.0238 1.238567,0.70011 0.232999,0.30236 -1.199768,-0.61139 z m -2.730284,0.0219 1.13511,0.47215 0.312718,0.55989 -1.148042,-0.42826 z m -0.81603,0.31572 1.109033,0.41492 0.349396,0.70391 -1.132779,-0.37676 z m 2.970491,0.13735 1.192986,0.5494 0.254414,0.36626 -1.183237,-0.49215 z m -0.918221,0.061 1.176029,0.4893 0.316742,0.50742 -1.183233,-0.44161 z m 1.905133,0.0553 1.224787,0.6238 0.1783,0.23177 -1.19023,-0.54844 z m 126.430752,0.11445 -76.05159,106.46899 0.008,0.12305 76.0518,-106.469 z m -129.193255,0.0782 1.160335,0.43398 0.367628,0.65909 -1.180481,-0.39298 z m 3.773371,0.02 1.303019,0.73635 0.151164,0.17741 -1.234326,-0.62857 z m -5.809953,0.0172 0.09307,0.0305 0.338792,0.87654 -0.131235,-0.0381 z m 0.159433,0.0525 1.000482,0.33287 0.370169,0.84318 -1.033132,-0.30236 z m 7.356787,0.16977 1.436589,0.94332 1.192775,1.13887 -1.41984,-0.80311 z m -3.33027,0.0305 1.200406,0.49884 0.313143,0.45115 -1.200831,-0.44924 z m 0.958075,0.0143 1.212704,0.55894 0.227069,0.29473 -1.191507,-0.49599 z m 123.981812,0.0801 -76.3395,103.45014 0.008,0.12305 76.3395,-103.4492 z m -127.891936,0.063 1.14338,0.38057 0.398367,0.80216 -1.173057,-0.34337 z m 2.061177,0.0238 1.197227,0.44734 0.380346,0.6095 -1.212914,-0.40347 z m 2.899042,0.0467 1.265703,0.64478 0.112369,0.13162 -1.209525,-0.55798 z m 120.827507,0.31953 -76.62636,100.42464 0.008,0.124 76.62635,-100.42474 z m -121.502339,0.007 1.211856,0.50457 0.299572,0.38822 -1.2038,-0.44926 z m -3.058265,0.0114 1.192141,0.3968 0.423386,0.75828 -1.219062,-0.35672 z m 4.872231,0.0257 1.386341,0.78308 0.01804,0.0191 -1.271859,-0.64764 z m 1.900891,0.008 3.399388,2.59917 -1.576724,-1.03491 z m -2.71692,0.0477 1.23687,0.56944 0.182117,0.21365 -1.200192,-0.49981 z m -1.913189,0.0219 1.217156,0.45497 0.387132,0.55799 -1.227332,-0.40824 z m -4.253582,0.0906 0.137598,0.0401 0.378015,0.97862 -0.178942,-0.0458 z m 0.202895,0.0591 1.041825,0.30523 0.414479,0.94333 -1.079348,-0.27279 z m 7.1081,0.15644 1.312137,0.66767 0.01104,0.0114 -1.224577,-0.5637 z m 117.255758,0.0162 -76.91236,97.39627 0.008,0.12401 76.91235,-97.39533 z m -121.168638,0.002 1.22606,0.40728 0.444167,0.7125 -1.249595,-0.36626 z m 3.135007,0.12876 1.224791,0.50935 0.273709,0.32048 -1.205924,-0.45115 z m -5.215894,0.0229 1.183019,0.34625 0.448405,0.90326 -1.218215,-0.30905 z m 4.280927,0.0267 1.222456,0.45689 0.387133,0.5017 -1.227122,-0.40727 z m 3.449422,0.0334 1.653477,1.08544 0.796945,0.68389 -0.06445,-0.0296 -0.575398,-0.29281 -0.722321,-0.40919 z m -1.456094,0.0982 1.259138,0.57993 0.113423,0.12017 -1.201469,-0.49979 z m 114.87105,0.12686 -77.19793,94.36409 0.008,0.12399 77.19773,-94.36409 z m -117.730017,0.007 1.242381,0.413 0.460065,0.6629 -1.261676,-0.36913 z m -2.150434,0.0782 1.230092,0.35959 0.479568,0.85939 -1.262947,-0.31953 z m 4.383969,0.16788 1.22818,0.45878 0.377805,0.44257 -1.225212,-0.40728 z m 0.968679,0.0219 1.231998,0.51314 0.231517,0.24418 -1.199348,-0.44829 z m 112.423383,0.15642 -77.48288,91.32903 0.007,0.12495 77.48268,-91.328 z m -114.26046,0.0296 1.244295,0.41395 0.470875,0.61044 -1.259348,-0.36817 z m -2.192619,0.0104 1.261889,0.36912 0.507343,0.81361 -1.291994,-0.32715 z m -3.269635,0.0372 1.088041,0.2747 0.460061,1.04825 -1.13044,-0.24227 z m 8.437831,0.0477 1.265283,0.58278 0.01165,0.0115 -1.178995,-0.49123 z m -0.71172,0.21841 1.226274,0.45784 0.357872,0.37866 -1.214397,-0.40346 z m -6.567049,0.0267 1.227971,0.31095 0.499287,1.00628 -1.268466,-0.27185 z m 116.459022,0.0563 -77.76698,88.29016 0.007,0.12496 77.76699,-88.29017 z m -112.981612,0.0143 1.275883,0.37296 0.5313,0.76496 -1.302809,-0.33003 z m 4.101994,0.002 1.217576,0.50649 0.168551,0.16119 -1.167546,-0.43685 z m -1.89263,0.0477 1.245358,0.41397 0.475331,0.55607 -1.255535,-0.36722 z m -4.378874,0.21081 1.273548,0.32238 0.53639,0.96146 -1.312348,-0.28138 z m 113.046692,0.14497 -78.05086,85.24846 0.007,0.1259 78.05086,-85.24941 z m -109.482785,0.002 1.275245,0.37295 0.551442,0.71536 -1.299415,-0.32906 z m 4.687779,0.01 0.964013,0.63334 -0.488897,-0.2251 z m -1.571852,0.0172 1.201044,0.4483 0.325012,0.30999 -1.179206,-0.39203 z m -0.896383,0.082 1.238571,0.41206 0.472358,0.4998 -1.243019,-0.36341 z m -4.419373,0.0897 1.303867,0.33004 0.570312,0.9147 -1.340121,-0.28711 z m 6.371361,0.006 0.959351,0.3987 0.243811,0.13829 -1.052633,-0.39392 z m -2.762507,0.20793 1.273763,0.37294 0.566919,0.66386 -1.29454,-0.32812 z m 105.96913,0 -78.33432,82.20482 0.007,0.1259 78.33411,-82.20482 z m -112.936877,0.0391 1.1385,0.24418 0.50607,1.15221 -1.185564,-0.20792 z m 4.764528,0.10302 1.316375,0.33383 0.601266,0.86512 -1.350088,-0.28901 z m 5.339499,0.007 1.117512,0.41777 0.279006,0.23942 -1.086769,-0.36151 z m -0.904014,0.021 1.20889,0.4025 0.461757,0.44067 -1.207827,-0.35386 z m -7.991761,0.1278 1.277791,0.27376 0.550169,1.10833 -1.323158,-0.23273 z m 109.623775,0.11065 -78.61672,79.15736 0.006,0.12686 78.61693,-79.15831 z m -102.438505,0.01 1.264649,0.36912 0.577305,0.61045 -1.281608,-0.32429 z m -2.198129,0.0868 1.314254,0.33287 0.62904,0.81552 -1.345636,-0.28806 z m -3.631114,0.0839 1.322095,0.28328 0.592362,1.06159 -1.365989,-0.24036 z m 8.057695,0.0544 1.12493,0.37389 0.445225,0.38249 -1.12133,-0.32812 z m 0.871153,0.0248 0.116817,0.0439 0.561405,0.31762 -0.420417,-0.1402 z m 97.23426,0.14307 -78.89911,76.10801 0.006,0.12685 78.8991,-76.10894 z m -98.895369,0.0276 1.233909,0.36055 0.583026,0.55608 -1.248319,-0.31573 z m -2.193891,0.0315 1.311503,0.33193 0.653417,0.76496 -1.340332,-0.2871 z m -3.663554,0.02 1.351364,0.28996 0.631997,1.01295 -1.393121,-0.24513 z m 8.312958,0.0744 0.09328,0.0353 0.0027,0.001 0.0884,0.0677 z m -0.29024,0.1364 0.730376,0.24226 0.395616,0.22414 0.22155,0.16883 -0.919914,-0.26898 z m -6.572349,0.10014 1.362595,0.29188 0.668897,0.96334 -1.402242,-0.24608 z m 101.197605,0.008 -79.180879,73.05484 0.0057,0.12686 79.181089,-73.05579 z m -97.527692,0.0295 1.301747,0.33002 0.674411,0.71345 -1.328462,-0.28518 z m 2.171418,0.0191 1.154614,0.33861 0.587482,0.50361 -1.170298,-0.29567 z m 2.072412,0.10015 0.189538,0.0706 0.403878,0.18599 -0.256108,-0.0849 z m -12.826255,0.008 1.193627,0.2089 0.549741,1.25236 -1.244715,-0.17074 z m 6.385989,0.15072 1.359416,0.2909 0.703454,0.91281 -1.397366,-0.24608 z m -5.123886,0.0706 1.331645,0.23368 0.598297,1.20467 -1.381469,-0.18885 z m 11.714043,0.01 0.187631,0.062 0.805429,0.41014 -0.493138,-0.14402 z m 91.029131,0.004 -79.462014,69.99784 0.0055,0.12686 79.462004,-69.99784 z m -93.955947,0.01 1.272066,0.32144 0.692643,0.66098 -1.297933,-0.27755 z m 2.091702,0.0534 0.96529,0.28232 0.602749,0.4607 -0.995609,-0.2518 z m -9.470538,0.17072 1.375531,0.24133 0.644936,1.15602 -1.423867,-0.19553 z m 5.198939,0 1.356232,0.29092 0.735256,0.86035 -1.392276,-0.24419 z m 6.027266,0.0687 0.532571,0.17646 0.735256,0.33955 -0.598082,-0.17549 z m -2.386399,0.0763 1.199772,0.30426 0.712144,0.6114 -1.229025,-0.26325 z m 90.390127,0.009 -79.742711,66.9361 0.0053,0.1278 79.742711,-66.93704 z m -88.515733,0.0391 0.08353,0.0248 0.01846,0.0104 0.714476,0.46928 -0.235331,-0.0601 z m -9.252592,0.0639 1.403725,0.24704 0.689036,1.10452 -1.449949,-0.19935 z m 5.232858,0.0639 1.346694,0.28805 0.764723,0.80884 -1.381465,-0.24227 z m 4.579227,0.0362 0.621619,0.18123 0.97949,0.49885 -0.719351,-0.18122 z m -1.016802,0.1469 1.034828,0.2623 0.74458,0.56943 -1.080196,-0.23178 z m -7.295094,0.0162 1.413902,0.24896 0.731014,1.05205 -1.458425,-0.2003 z m 94.163286,0.0143 -80.022777,63.87148 0.0051,0.12781 80.022767,-63.87156 z m -84.359042,0.0467 0.418086,0.13831 0.538934,0.22414 -0.46155,-0.13448 z m -4.567354,0.062 1.319344,0.28234 0.792711,0.75637 -1.354326,-0.2375 z m 4.293863,0.0706 0.769595,0.2251 0.948541,0.43685 -0.830448,-0.20984 z m -8.009363,0.0734 1.410302,0.248 0.770868,0.9996 -1.453125,-0.19935 z m 7.065274,0.0438 0.303176,0.0773 0.877092,0.57611 -0.453702,-0.0973 z m 83.471572,0.0792 -80.302004,60.80209 0.0047,0.12685 80.302204,-60.80112 z m -85.32285,0.0534 1.255102,0.26898 0.823031,0.70584 -1.294544,-0.22701 z m 2.548373,0.0725 0.980335,0.55417 -0.202256,-0.0429 z m -6.232495,0.02 1.406905,0.24704 0.808402,0.94619 -1.448253,-0.19839 z m 6.557083,0.0334 0.810308,0.20507 1.113691,0.56752 -0.898293,-0.19267 z m -13.369638,0.0505 1.389949,0.19077 0.644937,1.29909 -1.443587,-0.14307 z m 14.828911,0.0229 0.73907,0.21652 0.844651,0.351 -0.780624,-0.19744 z m 0.709389,0.0734 0.01422,0.005 0.0458,0.0172 -0.02522,-0.007 z m -3.582354,0.04 1.114329,0.23846 0.867344,0.6629 -1.169881,-0.20507 z m 81.758511,0.004 -80.580788,57.72699 0.0047,0.12782 80.580788,-57.72795 z m -85.361003,0.0467 1.398001,0.24514 0.844227,0.89277 -1.438706,-0.19744 z m -6.888456,0.0143 1.432981,0.19648 0.695399,1.24569 -1.48514,-0.14689 z m 13.22038,0.0811 0.947903,0.24036 1.10267,0.50838 -1.003661,-0.21556 z m -11.703228,0.12685 1.460122,0.2003 0.743735,1.19228 -1.510369,-0.14975 z m 10.326849,0.0172 0.510951,0.10873 1.001964,0.65814 -0.661262,-0.11637 z m -3.406805,0.0324 1.37362,0.24131 0.878999,0.83841 -1.41475,-0.19458 z m 81.707203,0.0448 -80.858733,54.64805 0.0042,0.12781 80.858733,-54.64805 z m -74.990687,0.0429 0.571367,0.16693 0.612076,0.22891 -0.592572,-0.14974 z m -2.503854,0.0525 0.278161,0.0591 1.179844,0.66672 -0.479783,-0.0839 z m -9.578665,0.0238 1.469449,0.20126 0.789956,1.13696 -1.518215,-0.15071 z m 11.718919,0.0572 0.951506,0.24132 1.043308,0.43397 -0.990305,-0.21269 z m -4.809262,0.0496 1.318072,0.23084 0.917159,0.78785 -1.364078,-0.18792 z m 3.316918,0.008 0.968252,0.20697 1.223514,0.6238 -1.048604,-0.18408 z m -8.652816,0.10111 1.465421,0.20124 0.834055,1.08164 -1.51249,-0.14975 z m 83.394387,0.0219 -81.136255,51.56435 0.004,0.12781 81.136255,-51.56436 z m -76.547695,0.13448 1.199772,0.2108 0.968676,0.74016 -1.261679,-0.17265 z m 3.213028,0.0438 1.089525,0.23369 1.224153,0.56371 -1.140835,-0.2003 z m -8.47854,0.0162 1.461818,0.20125 0.876029,1.02535 -1.50761,-0.14975 z m 10.312225,0.0677 0.872001,0.22032 0.913342,0.34147 -0.895744,-0.19171 z m 0.782744,0.0582 0.08353,0.0238 0.09668,0.0324 -0.08926,-0.0229 z m 68.612968,0.0305 -81.412931,48.4759 0.0038,0.12782 81.412931,-48.4759 z m -73.019406,0.0334 0.710447,0.12496 1.101184,0.72298 -0.856735,-0.11827 z m -5.097599,0.0286 1.453973,0.19935 0.916521,0.97003 -1.49913,-0.1488 z m 8.500801,0.11065 1.106063,0.23654 1.190016,0.49599 -1.142951,-0.20126 z m -2.421594,0.0334 0.542538,0.0944 1.263165,0.71442 -0.724655,-0.0992 z m -4.480853,0.0754 1.432558,0.19647 0.956806,0.91282 -1.478564,-0.14594 z m 74.413391,0.062 -81.68877,45.38172 0.0034,0.12876 81.68897,-45.38171 z m -69.056929,0.0162 1.104152,0.19362 1.305565,0.66481 -1.17645,-0.1612 z m 3.713374,0.0448 0.644303,0.16311 0.665079,0.22127 -0.658507,-0.14116 z m -17.774383,0.0172 1.493834,0.14784 0.74437,1.3344 -1.549378,-0.0944 z m 10.299297,0.0792 1.385065,0.1898 1.000268,0.85844 -1.435737,-0.14212 z m 7.05679,0.0467 1.065564,0.22796 1.112002,0.41586 -1.090801,-0.19172 z m -15.779993,0.0296 1.519908,0.15069 0.79631,1.27717 -1.573545,-0.0963 z m 13.977048,0.0438 1.206341,0.21175 1.311717,0.60471 -1.252561,-0.17168 z m 65.459516,0.0601 -81.964164,42.2818 0.0034,0.12876 81.964164,-42.28181 z m -69.145754,0.0343 1.288391,0.17646 1.056243,0.80788 -1.353695,-0.13353 z m -8.679314,0.0219 1.528601,0.15165 0.846138,1.21803 -1.580546,-0.0973 z m 1.629941,0.16119 1.523936,0.15071 0.893841,1.15983 -1.574398,-0.0963 z m 12.394813,0.0143 1.226698,0.21557 1.290932,0.537 -1.259558,-0.17265 z m -3.847582,0.009 0.899351,0.12303 1.185144,0.77831 -1.040129,-0.103 z m 5.869322,0.0286 0.939419,0.20125 0.97228,0.32335 -0.958079,-0.16882 z m 0.813485,0.0295 0.126993,0.0324 0.132718,0.0381 -0.130173,-0.0276 z m 58.859819,0.0315 -82.238506,39.17712 0.0031,0.12877 82.238496,-39.17713 z m -72.453977,0.0496 1.520332,0.15071 0.939629,1.09975 -1.569517,-0.0954 z m 8.061934,0.0181 0.777448,0.10681 1.333124,0.75352 -0.942598,-0.0935 z m 4.46369,0.14403 1.205279,0.21173 1.23963,0.46356 -1.228181,-0.16882 z m -10.88084,0.001 1.513545,0.14975 0.983946,1.04061 -1.5621,-0.0954 z m 7.497984,0.004 1.221822,0.16692 1.37362,0.7001 -1.287329,-0.12781 z m 61.205719,0.10683 -82.512207,36.06576 0.0027,0.12877 82.512207,-36.06576 z m -55.535267,0.0506 0.688188,0.14688 0.717662,0.2108 -0.702185,-0.12401 z m -11.516235,0.003 1.494679,0.14783 1.028041,0.98052 -1.544078,-0.0944 z m 7.415728,0.0544 1.304292,0.17931 1.382948,0.63716 -1.34606,-0.13354 z m 3.672459,0.10683 1.128319,0.19839 1.150797,0.38249 -1.145707,-0.1574 z m -9.43853,0.002 1.455035,0.14401 1.07511,0.92235 -1.508883,-0.0916 z m 63.296365,0.0992 -82.784853,32.94965 0.0027,0.12875 82.784853,-32.94963 z m -55.826996,0.0257 1.323582,0.18217 1.370869,0.57039 -1.353478,-0.13448 z m -5.840911,0.0362 1.377438,0.1364 1.134262,0.86702 -1.444855,-0.0877 z m 1.575032,0.15643 1.077865,0.10682 1.2585,0.82602 -1.212918,-0.0744 z m 9.001575,0.0172 0.15031,0.0324 0.18572,0.0467 -0.16325,-0.0286 z m -0.813703,0.007 0.983733,0.17264 1.00133,0.29282 -0.99603,-0.1364 z m -2.132618,0.0296 1.311285,0.17932 1.335673,0.4998 -1.33228,-0.13259 z m 51.932141,0.0362 -83.056868,29.82683 0.0023,0.12877 83.057078,-29.82684 z m -56.675468,0.04 0.98797,0.0982 1.394397,0.78785 -1.13871,-0.0696 z m 1.266551,0.1259 1.325283,0.13067 1.432986,0.72967 -1.385069,-0.0849 z m -13.116495,0.02 1.590512,0.0973 0.899772,1.29529 -1.645415,-0.0381 z m 18.452604,0.0324 1.260408,0.1736 1.27546,0.4235 -1.27631,-0.12592 z m -16.763511,0.0706 1.585212,0.0973 0.950444,1.23234 -1.638421,-0.0381 z m 64.730839,0.0105 -83.328034,26.69738 0.0019,0.12877 83.328034,-26.69643 z m -45.60488,0.001 0.72338,0.12686 0.73653,0.18695 -0.73144,-0.10016 z m -6.057586,0.0276 1.388248,0.13735 1.44422,0.66576 -1.426412,-0.0868 z m -11.374614,0.0649 1.581391,0.0963 0.998998,1.16938 -1.63312,-0.0372 z m 16.9927,0.0897 1.16669,0.16024 1.17942,0.34433 -1.17878,-0.11636 z m -15.291099,0.0143 1.57546,0.0963 1.046273,1.10643 -1.626552,-0.0381 z m 11.418498,0.004 1.403729,0.13925 1.437652,0.59804 -1.431083,-0.0868 z m 47.811281,0.0916 -83.598132,23.55932 0.0019,0.12875 83.598132,-23.55929 z m -57.521177,0.009 1.55913,0.0954 1.093128,1.04347 -1.610651,-0.0372 z m 11.523442,0.0801 1.395245,0.13831 1.41327,0.52746 -1.41497,-0.0858 z m -9.815907,0.0238 1.52627,0.0935 1.142952,0.98149 -1.582029,-0.0372 z m 14.705302,0.0152 0.19696,0.0353 0.18021,0.0381 -0.19229,-0.0267 z m -0.83108,0.0372 1.01384,0.13831 1.02359,0.25943 -1.02232,-0.10109 z m -12.183008,0.0515 1.466481,0.0897 1.203589,0.92044 -1.534326,-0.0362 z m 9.991878,0.0572 1.35962,0.1345 1.37087,0.45592 -1.37468,-0.0839 z m 42.02486,0.0104 -83.866968,20.41171 0.0015,0.12876 83.866958,-20.41171 z m -50.363474,0.0334 1.246202,0.0753 1.323372,0.86894 -1.375316,-0.0315 z m 1.465211,0.0887 1.178143,0.0725 1.448249,0.81839 -1.316165,-0.0305 z m 11.193973,0.0505 0.75582,0.10397 0.74988,0.16024 -0.75836,-0.0753 z m -2.40654,0.006 1.2937,0.12878 1.30471,0.38153 -1.30514,-0.0801 z m -7.351909,0.0315 1.417084,0.0868 1.484927,0.75639 -1.471781,-0.0343 z m 45.357039,0.0658 -84.134731,17.25362 0.0011,0.12877 84.134731,-17.25266 z m -43.651193,0.0381 1.46139,0.0897 1.497223,0.68961 -1.496164,-0.0343 z m 7.608023,0.0591 1.19383,0.11827 1.2038,0.30522 -1.20253,-0.0734 z m -5.823528,0.0505 1.471568,0.0897 1.49447,0.6219 -1.4968,-0.0343 z m 8.700728,0.083 0.19271,0.0257 0.19612,0.0353 -0.19484,-0.02 z m -6.86323,0.0286 1.46415,0.0897 1.4773,0.55226 -1.48239,-0.0343 z m 6.019,0.0391 1.0431,0.10397 1.04288,0.22318 -1.04818,-0.0639 z m -4.14037,0.0763 1.43701,0.0877 1.44677,0.48074 -1.45122,-0.0334 z m 1.91383,0.11637 1.38761,0.0849 1.3997,0.40918 -1.39906,-0.0324 z m 4.39096,0.0219 0.76303,0.0754 0.76897,0.13544 -0.76749,-0.0467 z m -23.825601,0.0877 1.64457,0.0381 1.055177,1.2352 -1.797216,0.0257 0.0076,-0.11924 z m 21.380691,0.01 1.31701,0.0801 1.33016,0.3367 -1.32613,-0.0305 z m -19.619939,0.0305 1.638846,0.0381 1.10458,1.16842 -1.691852,0.0248 z m 1.767329,0.041 1.624638,0.0381 1.153552,1.10071 -1.678069,0.0248 z m 1.767108,0.041 1.598143,0.0372 1.205069,1.03394 -1.655385,0.0248 z m 18.075442,0.008 1.21906,0.0744 1.22564,0.2623 -1.22543,-0.0276 z m 2.90391,0.0248 0.21583,0.021 0.20714,0.0286 -0.2135,-0.0133 z m -19.223686,0.008 1.55404,0.0353 1.266346,0.96906 -1.622097,0.0238 z m 1.731282,0.0401 1.405211,0.0324 1.380617,0.90613 -1.527963,0.0229 z m 1.611075,0.0372 1.350512,0.0315 1.496371,0.84603 -1.477715,0.021 z m 15.039229,0.0162 1.05157,0.0639 1.06493,0.18694 -1.05794,-0.0238 z m -13.449145,0.02 1.49913,0.0353 1.530935,0.77927 -1.54938,0.0229 z m 1.765415,0.041 1.52585,0.0353 1.54365,0.71155 -1.55786,0.0229 z m 1.82097,0.042 1.5305,0.0362 1.54323,0.64192 -1.55362,0.0229 z m 12.04032,0.0296 0.78084,0.0477 0.78932,0.10874 -0.78529,-0.0181 z m -10.17929,0.0143 1.52224,0.0353 1.53093,0.57133 -1.53899,0.0229 z m 1.89199,0.0438 1.5004,0.0343 1.50824,0.50171 -1.51375,0.0219 z m 1.9187,0.0439 1.46118,0.0343 1.47326,0.43017 -1.47178,0.0219 z m 1.94117,0.0448 1.40839,0.0324 1.4226,0.36055 -1.41709,0.021 z m 6.90182,0.005 0.21264,0.0124 0.23364,0.0238 -0.22007,-0.006 z m -4.93139,0.041 1.34055,0.0315 1.34966,0.289 -1.34712,0.0191 z m 21.08367,0.0172 -1.09482,0.14116 v -0.0534 l 0.80669,-0.0725 z m -19.06765,0.0296 1.22988,0.0286 1.24408,0.21843 -1.23603,0.0181 z m 2.07601,0.0477 1.07108,0.0248 1.07978,0.14878 -1.07533,0.0152 z m 2.20153,0.0515 0.7908,0.0181 0.80183,0.0792 -0.79484,0.0124 z m 2.49939,0.0572 0.23725,0.006 0.23109,0.0143 -0.23554,0.004 z m 8.32463,0.0334 -0.26035,0.0238 -0.27392,-0.007 0.247,-0.0124 z m -4.20504,0.062 0.26078,0.007 -0.24826,0.0124 -0.25462,-0.0152 z m -1.94159,0.0286 0.82155,0.0505 -0.81073,0.0429 -0.8171,-0.0811 z m 3.90186,0.0171 0.84485,0.0191 -0.82196,0.0753 -0.83765,-0.0515 z m -5.84812,0.0114 1.10224,0.10969 -1.08634,0.0572 -1.09653,-0.15071 z m -1.92909,0.0286 1.26613,0.17361 -1.25278,0.0668 -1.26083,-0.22129 z m -1.92507,0.0286 1.37341,0.24131 -1.35751,0.0715 -1.36683,-0.29283 z m -1.91446,0.0286 1.44676,0.30999 -1.43637,0.0754 -1.43998,-0.36436 z m 9.66962,0.006 1.12112,0.0677 -1.0997,0.10015 -1.11582,-0.11064 z m -11.58153,0.0219 1.49976,0.37962 -1.48789,0.0782 -1.49108,-0.43589 z m -1.89984,0.0286 1.5373,0.44925 -1.53072,0.0811 -1.52712,-0.50838 z m -1.89326,0.0276 1.5638,0.51983 -1.56592,0.083 -1.55107,-0.57992 z m 13.4252,0.0238 1.2869,0.1278 -1.26274,0.11447 -1.28097,-0.17551 z m -15.3121,0.004 1.58076,0.59041 -1.58775,0.0839 -1.56486,-0.65145 z m -1.87333,0.0276 1.58924,0.661 -1.60323,0.0849 -1.56782,-0.72299 z m -1.8534,0.0276 1.58796,0.73159 -1.61297,0.0849 -1.55808,-0.79357 z m -1.83008,0.0267 1.57482,0.80215 -1.61977,0.0849 -1.528383,-0.86416 z m 18.93345,0.0162 1.39418,0.19171 -1.37277,0.124 -1.38846,-0.24322 z m -20.730669,0.0104 1.542169,0.8718 -1.625915,0.0858 -1.424288,-0.93571 z m -1.702449,0.0248 1.434679,0.94237 -1.758418,0.0925 0.0027,-0.0687 -1.233481,-0.94333 z m 20.501268,0.0668 1.46903,0.25754 -1.44613,0.13163 -1.46224,-0.31382 z m -1.92294,0.10118 1.52267,0.32621 -1.50508,0.1364 -1.51545,-0.38344 z m -1.9204,0.10111 1.56231,0.39584 -1.68994,0.15261 7.7e-4,-0.0553 -1.40882,-0.41204 z"
       id="path40" />
  </g>
</svg>
